STARTFONT 2.1
FONT -Monotype-Nimrod-Regular-R-Normal--14-140-75-75-P-79-iso8859-5
SIZE 14 75 75
FONTBOUNDINGBOX 16 19 0 -3

STARTPROPERTIES 24
FOUNDRY "Monotype"
FAMILY_NAME "Nimrod"
WEIGHT_NAME "Regular"
SLANT "R"
SETWIDTH_NAME "Normal"
ADD_STYLE_NAME ""
PIXEL_SIZE 14
POINT_SIZE 140
RESOLUTION_X 75
RESOLUTION_Y 75
SPACING "P"
AVERAGE_WIDTH 79
CHARSET_REGISTRY "iso8859"
CHARSET_ENCODING "5"
FACE_NAME "Nimrod ISO Latin Cyrillic"
_DEC_DEVICE_FONTNAMES "PS=nimrod-latcyrillic"
COPYRIGHT "Copyright (c) 1994 Monotype Typography Ltd."
CAP_HEIGHT 14
X_HEIGHT 10
WEIGHT 10
QUAD_WIDTH 10
DEFAULT_CHAR 160
FONT_DESCENT 4
FONT_ASCENT 16
ENDPROPERTIES

CHARS 191

STARTCHAR space
ENCODING 32
SWIDTH 250 0
DWIDTH 4 0
BBX 0 0 0 0
BITMAP
ENDCHAR

STARTCHAR exclam
ENCODING 33
SWIDTH 281 0
DWIDTH 4 0
BBX 1 12 2 0
BITMAP
80
80
80
80
80
80
80
80
00
00
80
80
ENDCHAR

STARTCHAR quotedbl
ENCODING 34
SWIDTH 406 0
DWIDTH 6 0
BBX 4 4 1 8
BITMAP
90
90
90
90
ENDCHAR

STARTCHAR numbersign
ENCODING 35
SWIDTH 667 0
DWIDTH 10 0
BBX 9 12 1 0
BITMAP
1100
1100
1100
7F80
2200
2200
2200
2200
FF00
4400
4400
4400
ENDCHAR

STARTCHAR dollar
ENCODING 36
SWIDTH 500 0
DWIDTH 8 0
BBX 7 14 1 -2
BITMAP
10
7C
96
92
90
50
38
14
12
92
D2
7C
10
10
ENDCHAR

STARTCHAR percent
ENCODING 37
SWIDTH 1000 0
DWIDTH 15 0
BBX 10 12 3 0
BITMAP
6100
9100
9200
9200
9400
6400
0980
0A40
1240
1240
2240
2180
ENDCHAR

STARTCHAR ampersand
ENCODING 38
SWIDTH 781 0
DWIDTH 12 0
BBX 11 12 1 0
BITMAP
1C00
2200
2200
2400
1800
3000
49C0
8480
8480
8320
C720
79C0
ENDCHAR

STARTCHAR quoteright
ENCODING 39
SWIDTH 281 0
DWIDTH 4 0
BBX 2 4 1 8
BITMAP
C0
40
40
80
ENDCHAR

STARTCHAR parenleft
ENCODING 40
SWIDTH 354 0
DWIDTH 5 0
BBX 5 15 0 -3
BITMAP
08
10
20
40
40
80
80
80
80
80
40
40
20
10
08
ENDCHAR

STARTCHAR parenright
ENCODING 41
SWIDTH 354 0
DWIDTH 5 0
BBX 5 15 0 -3
BITMAP
80
40
20
10
10
08
08
08
08
08
10
10
20
40
80
ENDCHAR

STARTCHAR asterisk
ENCODING 42
SWIDTH 469 0
DWIDTH 7 0
BBX 7 6 0 6
BITMAP
10
10
D6
38
28
6C
ENDCHAR

STARTCHAR plus
ENCODING 43
SWIDTH 667 0
DWIDTH 10 0
BBX 7 7 1 1
BITMAP
10
10
10
FE
10
10
10
ENDCHAR

STARTCHAR comma
ENCODING 44
SWIDTH 281 0
DWIDTH 4 0
BBX 2 4 1 -2
BITMAP
C0
40
40
80
ENDCHAR

STARTCHAR minus
ENCODING 45
SWIDTH 667 0
DWIDTH 10 0
BBX 8 1 1 4
BITMAP
FF
ENDCHAR

STARTCHAR period
ENCODING 46
SWIDTH 281 0
DWIDTH 4 0
BBX 1 2 2 0
BITMAP
80
80
ENDCHAR

STARTCHAR slash
ENCODING 47
SWIDTH 510 0
DWIDTH 8 0
BBX 8 12 0 0
BITMAP
03
02
04
04
08
08
10
10
20
20
40
C0
ENDCHAR

STARTCHAR zero
ENCODING 48
SWIDTH 500 0
DWIDTH 8 0
BBX 6 12 1 0
BITMAP
30
48
84
84
84
84
84
84
84
84
48
30
ENDCHAR

STARTCHAR one
ENCODING 49
SWIDTH 500 0
DWIDTH 8 0
BBX 3 12 3 0
BITMAP
40
C0
40
40
40
40
40
40
40
40
40
E0
ENDCHAR

STARTCHAR two
ENCODING 50
SWIDTH 500 0
DWIDTH 8 0
BBX 6 12 1 0
BITMAP
78
C4
84
04
04
08
08
10
20
44
84
FC
ENDCHAR

STARTCHAR three
ENCODING 51
SWIDTH 500 0
DWIDTH 8 0
BBX 6 12 1 0
BITMAP
78
C4
84
04
08
30
08
04
04
84
C4
78
ENDCHAR

STARTCHAR four
ENCODING 52
SWIDTH 500 0
DWIDTH 8 0
BBX 6 12 1 0
BITMAP
08
18
18
28
28
48
48
88
FC
08
08
1C
ENDCHAR

STARTCHAR five
ENCODING 53
SWIDTH 500 0
DWIDTH 8 0
BBX 7 12 0 0
BITMAP
3E
20
20
40
78
44
02
02
02
82
C4
78
ENDCHAR

STARTCHAR six
ENCODING 54
SWIDTH 500 0
DWIDTH 8 0
BBX 6 12 1 0
BITMAP
38
4C
44
80
B0
C8
84
84
84
84
48
30
ENDCHAR

STARTCHAR seven
ENCODING 55
SWIDTH 500 0
DWIDTH 8 0
BBX 6 12 1 0
BITMAP
7C
44
84
08
08
08
10
10
10
30
20
20
ENDCHAR

STARTCHAR eight
ENCODING 56
SWIDTH 500 0
DWIDTH 8 0
BBX 6 12 1 0
BITMAP
78
84
84
84
48
30
48
84
84
84
84
78
ENDCHAR

STARTCHAR nine
ENCODING 57
SWIDTH 500 0
DWIDTH 8 0
BBX 6 12 1 0
BITMAP
30
48
84
84
84
84
4C
34
04
88
C8
70
ENDCHAR

STARTCHAR colon
ENCODING 58
SWIDTH 281 0
DWIDTH 4 0
BBX 1 8 2 0
BITMAP
80
80
00
00
00
00
80
80
ENDCHAR

STARTCHAR semicolon
ENCODING 59
SWIDTH 281 0
DWIDTH 4 0
BBX 2 10 1 -2
BITMAP
40
40
00
00
00
00
C0
40
40
80
ENDCHAR

STARTCHAR less
ENCODING 60
SWIDTH 667 0
DWIDTH 10 0
BBX 8 7 1 1
BITMAP
03
0C
30
C0
30
0C
03
ENDCHAR

STARTCHAR equal
ENCODING 61
SWIDTH 667 0
DWIDTH 10 0
BBX 8 3 1 3
BITMAP
FF
00
FF
ENDCHAR

STARTCHAR greater
ENCODING 62
SWIDTH 667 0
DWIDTH 10 0
BBX 8 7 1 1
BITMAP
C0
30
0C
03
0C
30
C0
ENDCHAR

STARTCHAR question
ENCODING 63
SWIDTH 448 0
DWIDTH 7 0
BBX 6 12 1 0
BITMAP
78
C4
84
04
08
10
20
20
00
00
20
20
ENDCHAR

STARTCHAR at
ENCODING 64
SWIDTH 917 0
DWIDTH 14 0
BBX 12 15 1 -3
BITMAP
0700
18C0
2020
46A0
4990
8890
8890
9190
9110
9B20
4DC0
4010
2020
18C0
0700
ENDCHAR

STARTCHAR A
ENCODING 65
SWIDTH 802 0
DWIDTH 12 0
BBX 11 12 1 0
BITMAP
0400
0E00
0A00
0A00
1100
1100
1100
2080
3F80
4040
4040
E0E0
ENDCHAR

STARTCHAR B
ENCODING 66
SWIDTH 729 0
DWIDTH 11 0
BBX 9 12 1 0
BITMAP
FC00
4200
4100
4100
4200
7E00
4100
4080
4080
4080
4100
FE00
ENDCHAR

STARTCHAR C
ENCODING 67
SWIDTH 719 0
DWIDTH 11 0
BBX 10 12 1 0
BITMAP
0F80
30C0
4040
4040
8000
8000
8000
8000
4040
4040
3080
0F00
ENDCHAR

STARTCHAR D
ENCODING 68
SWIDTH 771 0
DWIDTH 12 0
BBX 10 12 1 0
BITMAP
FC00
4300
4080
4080
4040
4040
4040
4040
4080
4080
4300
FC00
ENDCHAR

STARTCHAR E
ENCODING 69
SWIDTH 719 0
DWIDTH 11 0
BBX 9 12 1 0
BITMAP
FF80
4180
4080
4480
4400
7C00
4400
4480
4080
4080
4180
FF80
ENDCHAR

STARTCHAR F
ENCODING 70
SWIDTH 667 0
DWIDTH 10 0
BBX 9 12 1 0
BITMAP
FF80
4180
4080
4480
4400
7C00
4400
4400
4000
4000
4000
E000
ENDCHAR

STARTCHAR G
ENCODING 71
SWIDTH 792 0
DWIDTH 12 0
BBX 11 12 1 0
BITMAP
0F80
30C0
4040
4040
8000
8000
80E0
8040
4040
4040
3080
0F00
ENDCHAR

STARTCHAR H
ENCODING 72
SWIDTH 813 0
DWIDTH 12 0
BBX 10 12 1 0
BITMAP
E1C0
4080
4080
4080
4080
7F80
4080
4080
4080
4080
4080
E1C0
ENDCHAR

STARTCHAR I
ENCODING 73
SWIDTH 385 0
DWIDTH 5 0
BBX 3 12 1 0
BITMAP
E0
40
40
40
40
40
40
40
40
40
40
E0
ENDCHAR

STARTCHAR J
ENCODING 74
SWIDTH 573 0
DWIDTH 8 0
BBX 6 12 1 0
BITMAP
1C
08
08
08
08
08
08
08
48
C8
88
70
ENDCHAR

STARTCHAR K
ENCODING 75
SWIDTH 781 0
DWIDTH 12 0
BBX 11 12 1 0
BITMAP
E1C0
4080
4100
4200
4400
4C00
5200
6100
4100
4080
4040
E0E0
ENDCHAR

STARTCHAR L
ENCODING 76
SWIDTH 677 0
DWIDTH 10 0
BBX 9 12 1 0
BITMAP
E000
4000
4000
4000
4000
4000
4000
4080
4080
4080
4180
FF80
ENDCHAR

STARTCHAR M
ENCODING 77
SWIDTH 979 0
DWIDTH 15 0
BBX 13 12 1 0
BITMAP
E038
6050
5050
5090
5090
4890
4910
4910
4510
4610
4210
E238
ENDCHAR

STARTCHAR N
ENCODING 78
SWIDTH 823 0
DWIDTH 12 0
BBX 11 12 1 0
BITMAP
C0E0
6040
5040
5040
4840
4440
4440
4240
4140
4140
40C0
E040
ENDCHAR

STARTCHAR O
ENCODING 79
SWIDTH 792 0
DWIDTH 12 0
BBX 10 12 1 0
BITMAP
1E00
2100
4080
4080
8040
8040
8040
8040
4080
4080
2100
1E00
ENDCHAR

STARTCHAR P
ENCODING 80
SWIDTH 667 0
DWIDTH 10 0
BBX 9 12 1 0
BITMAP
FE00
4100
4080
4080
4080
4100
7E00
4000
4000
4000
4000
E000
ENDCHAR

STARTCHAR Q
ENCODING 81
SWIDTH 792 0
DWIDTH 12 0
BBX 10 14 1 -2
BITMAP
1E00
2100
4080
4080
8040
8040
8040
8040
5880
6480
2700
1C00
0600
01C0
ENDCHAR

STARTCHAR R
ENCODING 82
SWIDTH 729 0
DWIDTH 11 0
BBX 10 12 1 0
BITMAP
FE00
4100
4080
4080
4080
4100
7E00
4200
4100
4100
4080
E0C0
ENDCHAR

STARTCHAR S
ENCODING 83
SWIDTH 615 0
DWIDTH 9 0
BBX 7 12 1 0
BITMAP
3C
46
82
82
40
20
18
04
82
82
C4
78
ENDCHAR

STARTCHAR T
ENCODING 84
SWIDTH 698 0
DWIDTH 10 0
BBX 9 12 1 0
BITMAP
7F00
C980
8880
8880
0800
0800
0800
0800
0800
0800
0800
1C00
ENDCHAR

STARTCHAR U
ENCODING 85
SWIDTH 771 0
DWIDTH 12 0
BBX 10 12 1 0
BITMAP
E1C0
4080
4080
4080
4080
4080
4080
4080
4080
4080
2100
1E00
ENDCHAR

STARTCHAR V
ENCODING 86
SWIDTH 792 0
DWIDTH 12 0
BBX 11 12 1 0
BITMAP
E0E0
4040
4040
2080
2080
2100
1100
1100
0A00
0A00
0C00
0400
ENDCHAR

STARTCHAR W
ENCODING 87
SWIDTH 1010 0
DWIDTH 15 0
BBX 15 12 0 0
BITMAP
E38E
4104
4104
2104
2188
1288
1288
1248
0A50
0A50
0C30
0420
ENDCHAR

STARTCHAR X
ENCODING 88
SWIDTH 729 0
DWIDTH 11 0
BBX 11 12 0 0
BITMAP
F1E0
60C0
2080
1100
0A00
0400
0400
0A00
1100
2080
60C0
F1E0
ENDCHAR

STARTCHAR Y
ENCODING 89
SWIDTH 729 0
DWIDTH 11 0
BBX 10 12 1 0
BITMAP
E1C0
4080
2100
2100
1200
1400
0800
0800
0800
0800
0800
1C00
ENDCHAR

STARTCHAR Z
ENCODING 90
SWIDTH 625 0
DWIDTH 10 0
BBX 8 12 1 0
BITMAP
FF
C1
82
84
08
08
10
20
21
41
83
FF
ENDCHAR

STARTCHAR bracketleft
ENCODING 91
SWIDTH 344 0
DWIDTH 5 0
BBX 3 15 1 -3
BITMAP
E0
80
80
80
80
80
80
80
80
80
80
80
80
80
E0
ENDCHAR

STARTCHAR backslash
ENCODING 92
SWIDTH 510 0
DWIDTH 8 0
BBX 8 12 0 0
BITMAP
C0
40
20
20
10
10
08
08
04
04
02
03
ENDCHAR

STARTCHAR bracketright
ENCODING 93
SWIDTH 344 0
DWIDTH 5 0
BBX 3 15 1 -3
BITMAP
E0
20
20
20
20
20
20
20
20
20
20
20
20
20
E0
ENDCHAR

STARTCHAR asciicircum
ENCODING 94
SWIDTH 469 0
DWIDTH 7 0
BBX 7 5 0 7
BITMAP
10
10
28
44
82
ENDCHAR

STARTCHAR underscore
ENCODING 95
SWIDTH 500 0
DWIDTH 8 0
BBX 8 1 0 -3
BITMAP
FF
ENDCHAR

STARTCHAR quoteleft
ENCODING 96
SWIDTH 281 0
DWIDTH 4 0
BBX 2 4 1 8
BITMAP
40
80
80
C0
ENDCHAR

STARTCHAR a
ENCODING 97
SWIDTH 563 0
DWIDTH 8 0
BBX 7 8 1 0
BITMAP
78
C4
84
1C
64
84
8C
76
ENDCHAR

STARTCHAR b
ENCODING 98
SWIDTH 594 0
DWIDTH 9 0
BBX 8 12 1 0
BITMAP
C0
40
40
40
5C
62
41
41
41
41
62
5C
ENDCHAR

STARTCHAR c
ENCODING 99
SWIDTH 510 0
DWIDTH 8 0
BBX 7 8 1 0
BITMAP
3C
46
82
80
80
80
42
3C
ENDCHAR

STARTCHAR d
ENCODING 100
SWIDTH 594 0
DWIDTH 9 0
BBX 8 12 1 0
BITMAP
06
02
02
02
3A
46
82
82
82
82
46
3B
ENDCHAR

STARTCHAR e
ENCODING 101
SWIDTH 521 0
DWIDTH 8 0
BBX 7 8 1 0
BITMAP
3C
42
82
FE
80
80
42
3C
ENDCHAR

STARTCHAR f
ENCODING 102
SWIDTH 344 0
DWIDTH 5 0
BBX 6 12 1 0
BITMAP
38
4C
44
40
E0
40
40
40
40
40
40
E0
ENDCHAR

STARTCHAR g
ENCODING 103
SWIDTH 552 0
DWIDTH 8 0
BBX 7 11 1 -3
BITMAP
7A
84
84
84
84
78
80
7C
82
82
7C
ENDCHAR

STARTCHAR h
ENCODING 104
SWIDTH 646 0
DWIDTH 10 0
BBX 8 12 1 0
BITMAP
C0
40
40
40
5C
62
42
42
42
42
42
E7
ENDCHAR

STARTCHAR i
ENCODING 105
SWIDTH 365 0
DWIDTH 5 0
BBX 3 12 1 0
BITMAP
40
40
00
00
C0
40
40
40
40
40
40
E0
ENDCHAR

STARTCHAR j
ENCODING 106
SWIDTH 323 0
DWIDTH 5 0
BBX 4 15 0 -3
BITMAP
10
10
00
00
30
10
10
10
10
10
10
10
90
D0
60
ENDCHAR

STARTCHAR k
ENCODING 107
SWIDTH 625 0
DWIDTH 9 0
BBX 8 12 1 0
BITMAP
C0
40
40
40
4E
44
48
58
64
44
42
E7
ENDCHAR

STARTCHAR l
ENCODING 108
SWIDTH 333 0
DWIDTH 5 0
BBX 3 12 1 0
BITMAP
C0
40
40
40
40
40
40
40
40
40
40
E0
ENDCHAR

STARTCHAR m
ENCODING 109
SWIDTH 938 0
DWIDTH 13 0
BBX 11 8 1 0
BITMAP
DB80
6640
4440
4440
4440
4440
4440
EEE0
ENDCHAR

STARTCHAR n
ENCODING 110
SWIDTH 646 0
DWIDTH 10 0
BBX 8 8 1 0
BITMAP
DC
62
42
42
42
42
42
E7
ENDCHAR

STARTCHAR o
ENCODING 111
SWIDTH 562 0
DWIDTH 8 0
BBX 7 8 1 0
BITMAP
38
44
82
82
82
82
44
38
ENDCHAR

STARTCHAR p
ENCODING 112
SWIDTH 594 0
DWIDTH 10 0
BBX 8 11 1 -3
BITMAP
DC
62
41
41
41
41
62
5C
40
40
E0
ENDCHAR

STARTCHAR q
ENCODING 113
SWIDTH 594 0
DWIDTH 9 0
BBX 8 11 1 -3
BITMAP
3A
46
82
82
82
82
46
3A
02
02
07
ENDCHAR

STARTCHAR r
ENCODING 114
SWIDTH 490 0
DWIDTH 7 0
BBX 6 8 1 0
BITMAP
D8
6C
40
40
40
40
40
E0
ENDCHAR

STARTCHAR s
ENCODING 115
SWIDTH 479 0
DWIDTH 7 0
BBX 6 8 1 0
BITMAP
78
8C
84
60
18
84
C4
78
ENDCHAR

STARTCHAR t
ENCODING 116
SWIDTH 375 0
DWIDTH 6 0
BBX 5 11 1 0
BITMAP
40
40
40
F0
40
40
40
40
40
48
30
ENDCHAR

STARTCHAR u
ENCODING 117
SWIDTH 646 0
DWIDTH 10 0
BBX 8 8 1 0
BITMAP
C6
42
42
42
42
42
46
3B
ENDCHAR

STARTCHAR v
ENCODING 118
SWIDTH 594 0
DWIDTH 9 0
BBX 9 8 0 0
BITMAP
E380
4100
2200
2200
1400
1400
0800
0800
ENDCHAR

STARTCHAR w
ENCODING 119
SWIDTH 833 0
DWIDTH 12 0
BBX 11 8 1 0
BITMAP
EEE0
4440
4440
2A80
2A80
2A80
3300
1100
ENDCHAR

STARTCHAR x
ENCODING 120
SWIDTH 583 0
DWIDTH 9 0
BBX 8 8 1 0
BITMAP
E7
42
24
18
18
24
42
E7
ENDCHAR

STARTCHAR y
ENCODING 121
SWIDTH 594 0
DWIDTH 9 0
BBX 8 11 1 -3
BITMAP
E7
42
42
24
24
24
18
18
90
D0
60
ENDCHAR

STARTCHAR z
ENCODING 122
SWIDTH 479 0
DWIDTH 7 0
BBX 6 8 1 0
BITMAP
FC
88
90
10
20
24
44
FC
ENDCHAR

STARTCHAR braceleft
ENCODING 123
SWIDTH 479 0
DWIDTH 7 0
BBX 5 15 1 -3
BITMAP
18
20
20
20
20
20
20
C0
20
20
20
20
20
20
18
ENDCHAR

STARTCHAR bar
ENCODING 124
SWIDTH 510 0
DWIDTH 8 0
BBX 1 12 4 0
BITMAP
80
80
80
80
80
80
80
80
80
80
80
80
ENDCHAR

STARTCHAR braceright
ENCODING 125
SWIDTH 479 0
DWIDTH 7 0
BBX 5 15 1 -3
BITMAP
C0
20
20
20
20
20
20
18
20
20
20
20
20
20
C0
ENDCHAR

STARTCHAR asciitilde
ENCODING 126
SWIDTH 667 0
DWIDTH 10 0
BBX 8 2 1 4
BITMAP
71
8E
ENDCHAR

STARTCHAR space
ENCODING 160
SWIDTH 250 0
DWIDTH 5 0
BBX 0 0 0 0
BITMAP
ENDCHAR

STARTCHAR afii10023
ENCODING 161
SWIDTH 698 0
DWIDTH 11 0
BBX 9 15 1 0
BITMAP
2200
2200
0000
FF80
4180
4080
4480
4400
7C00
4400
4480
4080
4080
4180
FF80
ENDCHAR

STARTCHAR afii10051
ENCODING 162
SWIDTH 875 0
DWIDTH 13 0
BBX 11 12 1 0
BITMAP
7F00
C980
8880
8800
0BC0
0C20
0820
0820
0820
0820
0820
1CC0
ENDCHAR

STARTCHAR afii10052
ENCODING 163
SWIDTH 635 0
DWIDTH 10 0
BBX 9 16 1 0
BITMAP
0C00
0800
1000
0000
FF00
4180
4080
4080
4000
4000
4000
4000
4000
4000
4000
F000
ENDCHAR

STARTCHAR afii10053
ENCODING 164
SWIDTH 698 0
DWIDTH 11 0
BBX 10 12 1 0
BITMAP
0F80
30C0
4040
4040
8000
F800
8000
8000
4040
4040
3080
0F00
ENDCHAR

STARTCHAR afii10054
ENCODING 165
SWIDTH 594 0
DWIDTH 9 0
BBX 7 12 1 0
BITMAP
3C
46
82
82
40
20
18
04
82
82
C4
78
ENDCHAR

STARTCHAR afii10055
ENCODING 166
SWIDTH 385 0
DWIDTH 5 0
BBX 3 12 1 0
BITMAP
E0
40
40
40
40
40
40
40
40
40
40
E0
ENDCHAR

STARTCHAR afii10056
ENCODING 167
SWIDTH 385 0
DWIDTH 5 0
BBX 5 15 0 0
BITMAP
88
88
00
70
20
20
20
20
20
20
20
20
20
20
70
ENDCHAR

STARTCHAR afii10057
ENCODING 168
SWIDTH 573 0
DWIDTH 8 0
BBX 6 12 1 0
BITMAP
1C
08
08
08
08
08
08
08
48
C8
88
70
ENDCHAR

STARTCHAR afii10058
ENCODING 169
SWIDTH 1092 0
DWIDTH 16 0
BBX 15 12 0 0
BITMAP
1FC0
0880
0880
0880
0880
08F8
0884
1082
1082
D082
9084
61F8
ENDCHAR

STARTCHAR afii10059
ENCODING 170
SWIDTH 1089 0
DWIDTH 16 0
BBX 14 12 1 0
BITMAP
E380
4100
4100
4100
4100
7FF0
4108
4104
4104
4104
4108
E3F0
ENDCHAR

STARTCHAR afii10060
ENCODING 171
SWIDTH 885 0
DWIDTH 13 0
BBX 12 12 1 0
BITMAP
7F00
C980
8880
8800
0BC0
0C20
0820
0820
0820
0820
0820
1E70
ENDCHAR

STARTCHAR afii10061
ENCODING 172
SWIDTH 759 0
DWIDTH 11 0
BBX 10 16 1 0
BITMAP
0600
0400
0800
0000
E1C0
4240
4200
4400
4400
4800
7400
4200
4200
4100
4080
F0C0
ENDCHAR

STARTCHAR hyphen
ENCODING 173
SWIDTH 281 0
DWIDTH 4 0
BBX 3 1 1 4
BITMAP
E0
ENDCHAR

STARTCHAR afii10062
ENCODING 174
SWIDTH 732 0
DWIDTH 11 0
BBX 11 16 0 0
BITMAP
1080
1080
0F00
0000
E1E0
4040
4080
2080
2100
1100
1200
0E00
0400
4400
4800
3000
ENDCHAR

STARTCHAR afii10145
ENCODING 175
SWIDTH 823 0
DWIDTH 12 0
BBX 10 15 1 -3
BITMAP
E1C0
4080
4080
4080
4080
4080
4080
4080
4080
4080
4080
FFC0
0400
0400
0400
ENDCHAR

STARTCHAR afii10017
ENCODING 176
SWIDTH 792 0
DWIDTH 12 0
BBX 11 12 1 0
BITMAP
0400
0E00
0A00
0A00
1100
1100
1100
2080
3F80
4040
4040
E0E0
ENDCHAR

STARTCHAR afii10018
ENCODING 177
SWIDTH 701 0
DWIDTH 11 0
BBX 9 12 1 0
BITMAP
FF00
4180
4080
4080
4000
7E00
4100
4080
4080
4080
4100
FE00
ENDCHAR

STARTCHAR afii10019
ENCODING 178
SWIDTH 719 0
DWIDTH 11 0
BBX 9 12 1 0
BITMAP
FC00
4200
4100
4100
4200
7E00
4100
4080
4080
4080
4100
FE00
ENDCHAR

STARTCHAR afii10020
ENCODING 179
SWIDTH 635 0
DWIDTH 10 0
BBX 9 12 1 0
BITMAP
FF00
4180
4080
4080
4000
4000
4000
4000
4000
4000
4000
F000
ENDCHAR

STARTCHAR afii10021
ENCODING 180
SWIDTH 760 0
DWIDTH 11 0
BBX 10 14 0 -2
BITMAP
1FC0
0880
0880
0880
0880
0880
0880
1080
1080
1080
2080
FFC0
C0C0
8040
ENDCHAR

STARTCHAR afii10022
ENCODING 181
SWIDTH 698 0
DWIDTH 11 0
BBX 9 12 1 0
BITMAP
FF80
4180
4080
4480
4400
7C00
4400
4480
4080
4080
4180
FF80
ENDCHAR

STARTCHAR afii10024
ENCODING 182
SWIDTH 1115 0
DWIDTH 17 0
BBX 15 12 1 0
BITMAP
E38E
9112
1110
0920
0920
0540
0FF0
1110
2108
2108
4104
E38E
ENDCHAR

STARTCHAR afii10025
ENCODING 183
SWIDTH 601 0
DWIDTH 9 0
BBX 8 12 0 0
BITMAP
3C
62
41
41
02
0C
02
01
01
81
42
3C
ENDCHAR

STARTCHAR afii10026
ENCODING 184
SWIDTH 823 0
DWIDTH 12 0
BBX 10 12 1 0
BITMAP
F1C0
4080
4180
4180
4280
4480
4480
4880
5080
6080
4080
F1C0
ENDCHAR

STARTCHAR afii10027
ENCODING 185
SWIDTH 823 0
DWIDTH 12 0
BBX 10 16 1 0
BITMAP
2100
2100
1E00
0000
F1C0
4080
4180
4180
4280
4480
4480
4880
5080
6080
4080
F1C0
ENDCHAR

STARTCHAR afii10028
ENCODING 186
SWIDTH 759 0
DWIDTH 11 0
BBX 10 12 1 0
BITMAP
E1C0
4240
4200
4400
4400
4800
7400
4200
4200
4100
4080
F0C0
ENDCHAR

STARTCHAR afii10029
ENCODING 187
SWIDTH 789 0
DWIDTH 12 0
BBX 11 12 0 0
BITMAP
1FE0
0840
0840
0840
0840
0840
0840
1040
1040
D040
9040
60E0
ENDCHAR

STARTCHAR afii10030
ENCODING 188
SWIDTH 979 0
DWIDTH 15 0
BBX 13 12 1 0
BITMAP
E038
6050
5050
5090
5090
4890
4910
4910
4510
4610
4210
E238
ENDCHAR

STARTCHAR afii10031
ENCODING 189
SWIDTH 812 0
DWIDTH 12 0
BBX 10 12 1 0
BITMAP
E1C0
4080
4080
4080
4080
7F80
4080
4080
4080
4080
4080
E1C0
ENDCHAR

STARTCHAR afii10032
ENCODING 190
SWIDTH 767 0
DWIDTH 12 0
BBX 10 12 1 0
BITMAP
1E00
2100
4080
4080
8040
8040
8040
8040
4080
4080
2100
1E00
ENDCHAR

STARTCHAR afii10033
ENCODING 191
SWIDTH 823 0
DWIDTH 12 0
BBX 10 12 1 0
BITMAP
FFC0
4080
4080
4080
4080
4080
4080
4080
4080
4080
4080
F1C0
ENDCHAR

STARTCHAR afii10034
ENCODING 192
SWIDTH 662 0
DWIDTH 10 0
BBX 9 12 1 0
BITMAP
FE00
4100
4080
4080
4080
4100
7E00
4000
4000
4000
4000
E000
ENDCHAR

STARTCHAR afii10035
ENCODING 193
SWIDTH 694 0
DWIDTH 11 0
BBX 10 12 1 0
BITMAP
0F80
30C0
4040
4040
8000
8000
8000
8000
4040
4040
3080
0F00
ENDCHAR

STARTCHAR afii10036
ENCODING 194
SWIDTH 688 0
DWIDTH 10 0
BBX 9 12 1 0
BITMAP
7F00
C980
8880
8880
0800
0800
0800
0800
0800
0800
0800
1C00
ENDCHAR

STARTCHAR afii10037
ENCODING 195
SWIDTH 732 0
DWIDTH 11 0
BBX 11 12 0 0
BITMAP
E1E0
4040
4080
2080
2100
1100
1200
0E00
0400
4400
4800
3000
ENDCHAR

STARTCHAR afii10038
ENCODING 196
SWIDTH 799 0
DWIDTH 13 0
BBX 11 12 1 0
BITMAP
0E00
0400
3F80
4440
8420
8420
8420
8420
4440
3F80
0400
0E00
ENDCHAR

STARTCHAR afii10039
ENCODING 197
SWIDTH 729 0
DWIDTH 11 0
BBX 11 12 0 0
BITMAP
F1E0
60C0
2080
1100
0A00
0400
0400
0A00
1100
2080
60C0
F1E0
ENDCHAR

STARTCHAR afii10040
ENCODING 198
SWIDTH 823 0
DWIDTH 12 0
BBX 10 15 1 -3
BITMAP
E1C0
4080
4080
4080
4080
4080
4080
4080
4080
4080
4080
FFC0
00C0
0040
0040
ENDCHAR

STARTCHAR afii10041
ENCODING 199
SWIDTH 761 0
DWIDTH 11 0
BBX 10 12 0 0
BITMAP
F3C0
4080
4080
4080
4180
2280
1C80
0080
0080
0080
0080
01C0
ENDCHAR

STARTCHAR afii10042
ENCODING 200
SWIDTH 1073 0
DWIDTH 15 0
BBX 13 12 1 0
BITMAP
E738
4210
4210
4210
4210
4210
4210
4210
4210
4210
4210
FFF8
ENDCHAR

STARTCHAR afii10043
ENCODING 201
SWIDTH 1073 0
DWIDTH 15 0
BBX 13 15 1 -3
BITMAP
E738
4210
4210
4210
4210
4210
4210
4210
4210
4210
4210
FFF8
0018
0008
0008
ENDCHAR

STARTCHAR afii10044
ENCODING 202
SWIDTH 879 0
DWIDTH 13 0
BBX 11 12 1 0
BITMAP
7E00
C800
8800
8800
0800
0F80
0840
0820
0820
0820
0840
1F80
ENDCHAR

STARTCHAR afii10045
ENCODING 203
SWIDTH 1042 0
DWIDTH 15 0
BBX 13 12 1 0
BITMAP
F038
4010
4010
4010
4010
7C10
4210
4110
4110
4110
4210
FC38
ENDCHAR

STARTCHAR afii10046
ENCODING 204
SWIDTH 704 0
DWIDTH 11 0
BBX 9 12 1 0
BITMAP
E000
4000
4000
4000
4000
7E00
4100
4080
4080
4080
4100
FE00
ENDCHAR

STARTCHAR afii10047
ENCODING 205
SWIDTH 698 0
DWIDTH 11 0
BBX 10 12 1 0
BITMAP
7C00
C300
8080
8080
0040
07C0
0040
0040
8080
8080
4300
3C00
ENDCHAR

STARTCHAR afii10048
ENCODING 206
SWIDTH 1104 0
DWIDTH 16 0
BBX 14 12 1 0
BITMAP
E1E0
4210
4408
4408
4804
4804
7804
4804
4408
4408
4210
E1E0
ENDCHAR

STARTCHAR afii10049
ENCODING 207
SWIDTH 729 0
DWIDTH 11 0
BBX 10 12 0 0
BITMAP
1FC0
2080
4080
4080
4080
2080
1F80
1080
2080
2080
4080
C1C0
ENDCHAR

STARTCHAR afii10065
ENCODING 208
SWIDTH 563 0
DWIDTH 8 0
BBX 7 8 1 0
BITMAP
78
C4
84
1C
64
84
8C
76
ENDCHAR

STARTCHAR afii10066
ENCODING 209
SWIDTH 567 0
DWIDTH 8 0
BBX 7 11 1 0
BITMAP
02
3C
40
B8
C4
82
82
82
82
44
38
ENDCHAR

STARTCHAR afii10067
ENCODING 210
SWIDTH 559 0
DWIDTH 8 0
BBX 6 8 1 0
BITMAP
F8
44
44
78
44
44
44
F8
ENDCHAR

STARTCHAR afii10068
ENCODING 211
SWIDTH 504 0
DWIDTH 8 0
BBX 7 8 1 0
BITMAP
FE
42
42
40
40
40
40
F0
ENDCHAR

STARTCHAR afii10069
ENCODING 212
SWIDTH 616 0
DWIDTH 9 0
BBX 8 10 0 -2
BITMAP
7F
22
22
22
22
22
42
FF
81
81
ENDCHAR

STARTCHAR afii10070
ENCODING 213
SWIDTH 513 0
DWIDTH 8 0
BBX 7 8 1 0
BITMAP
3C
42
82
FE
80
80
42
3C
ENDCHAR

STARTCHAR afii10072
ENCODING 214
SWIDTH 844 0
DWIDTH 13 0
BBX 13 8 0 0
BITMAP
E738
9248
1240
0F80
3260
2220
4210
C718
ENDCHAR

STARTCHAR afii10073
ENCODING 215
SWIDTH 479 0
DWIDTH 7 0
BBX 6 8 1 0
BITMAP
78
C4
84
18
08
84
C4
78
ENDCHAR

STARTCHAR afii10074
ENCODING 216
SWIDTH 646 0
DWIDTH 10 0
BBX 8 8 1 0
BITMAP
E7
42
46
4A
52
62
42
E7
ENDCHAR

STARTCHAR afii10075
ENCODING 217
SWIDTH 646 0
DWIDTH 10 0
BBX 8 12 1 0
BITMAP
22
22
1C
00
E7
42
46
4A
52
62
42
E7
ENDCHAR

STARTCHAR afii10076
ENCODING 218
SWIDTH 602 0
DWIDTH 9 0
BBX 8 8 1 0
BITMAP
E7
49
48
70
48
44
42
E3
ENDCHAR

STARTCHAR afii10077
ENCODING 219
SWIDTH 639 0
DWIDTH 10 0
BBX 9 8 0 0
BITMAP
3F80
1100
1100
1100
1100
1100
9100
6380
ENDCHAR

STARTCHAR afii10078
ENCODING 220
SWIDTH 784 0
DWIDTH 13 0
BBX 11 8 1 0
BITMAP
E0E0
60C0
5140
5140
4A40
4A40
4440
E4E0
ENDCHAR

STARTCHAR afii10079
ENCODING 221
SWIDTH 646 0
DWIDTH 10 0
BBX 8 8 1 0
BITMAP
E7
42
42
7E
42
42
42
E7
ENDCHAR

STARTCHAR afii10080
ENCODING 222
SWIDTH 548 0
DWIDTH 8 0
BBX 7 8 1 0
BITMAP
38
44
82
82
82
82
44
38
ENDCHAR

STARTCHAR afii10081
ENCODING 223
SWIDTH 646 0
DWIDTH 10 0
BBX 8 8 1 0
BITMAP
FF
42
42
42
42
42
42
E7
ENDCHAR

STARTCHAR afii10082
ENCODING 224
SWIDTH 594 0
DWIDTH 10 0
BBX 8 11 1 -3
BITMAP
DC
62
41
41
41
41
62
5C
40
40
E0
ENDCHAR

STARTCHAR afii10083
ENCODING 225
SWIDTH 500 0
DWIDTH 8 0
BBX 7 8 1 0
BITMAP
3C
46
82
80
80
80
42
3C
ENDCHAR

STARTCHAR afii10084
ENCODING 226
SWIDTH 552 0
DWIDTH 8 0
BBX 7 8 1 0
BITMAP
FE
92
92
10
10
10
10
7C
ENDCHAR

STARTCHAR afii10085
ENCODING 227
SWIDTH 573 0
DWIDTH 9 0
BBX 8 11 1 -3
BITMAP
E7
42
42
24
24
24
18
18
90
D0
60
ENDCHAR

STARTCHAR afii10086
ENCODING 228
SWIDTH 746 0
DWIDTH 11 0
BBX 9 15 1 -3
BITMAP
1C00
0800
0800
0800
6B00
9C80
8880
8880
8880
8880
9C80
6B00
0800
0800
1C00
ENDCHAR

STARTCHAR afii10087
ENCODING 229
SWIDTH 583 0
DWIDTH 9 0
BBX 8 8 1 0
BITMAP
E7
42
24
18
18
24
42
E7
ENDCHAR

STARTCHAR afii10088
ENCODING 230
SWIDTH 646 0
DWIDTH 10 0
BBX 8 10 1 -2
BITMAP
E7
42
42
42
42
42
42
FF
01
01
ENDCHAR

STARTCHAR afii10089
ENCODING 231
SWIDTH 625 0
DWIDTH 10 0
BBX 8 8 1 0
BITMAP
E7
42
42
46
3A
02
02
0F
ENDCHAR

STARTCHAR afii10090
ENCODING 232
SWIDTH 927 0
DWIDTH 13 0
BBX 11 8 1 0
BITMAP
EEE0
4440
4440
4440
4440
4440
4440
FFE0
ENDCHAR

STARTCHAR afii10091
ENCODING 233
SWIDTH 927 0
DWIDTH 13 0
BBX 11 10 1 -2
BITMAP
EEE0
4440
4440
4440
4440
4440
4440
FFE0
0020
0020
ENDCHAR

STARTCHAR afii10092
ENCODING 234
SWIDTH 695 0
DWIDTH 10 0
BBX 9 8 1 0
BITMAP
F800
9000
9000
1F00
1080
1080
1080
3F00
ENDCHAR

STARTCHAR afii10093
ENCODING 235
SWIDTH 833 0
DWIDTH 12 0
BBX 10 8 1 0
BITMAP
E1C0
4080
4080
7C80
4280
4280
4280
FDC0
ENDCHAR

STARTCHAR afii10094
ENCODING 236
SWIDTH 565 0
DWIDTH 8 0
BBX 7 8 1 0
BITMAP
E0
40
40
7C
42
42
42
FC
ENDCHAR

STARTCHAR afii10095
ENCODING 237
SWIDTH 490 0
DWIDTH 7 0
BBX 6 8 1 0
BITMAP
70
C8
84
3C
04
84
C8
70
ENDCHAR

STARTCHAR afii10096
ENCODING 238
SWIDTH 833 0
DWIDTH 12 0
BBX 11 8 1 0
BITMAP
E380
4440
4820
7820
4820
4820
4440
E380
ENDCHAR

STARTCHAR afii10097
ENCODING 239
SWIDTH 577 0
DWIDTH 9 0
BBX 8 8 0 0
BITMAP
3F
42
42
22
1E
22
42
CF
ENDCHAR

STARTCHAR afii61352
ENCODING 240
SWIDTH 1053 0
DWIDTH 16 0
BBX 16 12 0 0
BITMAP
3038
1858
1840
1440
144E
1251
1251
1251
1151
114E
D140
E0CE
ENDCHAR

STARTCHAR afii10071
ENCODING 241
SWIDTH 513 0
DWIDTH 8 0
BBX 7 11 1 0
BITMAP
44
44
00
38
44
82
FE
80
80
42
3C
ENDCHAR

STARTCHAR afii10099
ENCODING 242
SWIDTH 574 0
DWIDTH 10 0
BBX 7 13 1 -2
BITMAP
C0
40
FC
40
5C
62
42
42
42
42
E2
04
18
ENDCHAR

STARTCHAR afii10100
ENCODING 243
SWIDTH 504 0
DWIDTH 8 0
BBX 7 12 1 0
BITMAP
18
10
20
00
FE
42
42
40
40
40
40
F0
ENDCHAR

STARTCHAR afii10101
ENCODING 244
SWIDTH 500 0
DWIDTH 8 0
BBX 7 8 1 0
BITMAP
3C
46
82
F0
80
80
42
3C
ENDCHAR

STARTCHAR afii10102
ENCODING 245
SWIDTH 458 0
DWIDTH 7 0
BBX 6 8 1 0
BITMAP
78
8C
84
60
18
84
C4
78
ENDCHAR

STARTCHAR afii10103
ENCODING 246
SWIDTH 354 0
DWIDTH 5 0
BBX 3 12 1 0
BITMAP
40
40
00
00
C0
40
40
40
40
40
40
E0
ENDCHAR

STARTCHAR afii10104
ENCODING 247
SWIDTH 354 0
DWIDTH 5 0
BBX 4 11 0 0
BITMAP
90
90
00
60
20
20
20
20
20
20
70
ENDCHAR

STARTCHAR afii10105
ENCODING 248
SWIDTH 323 0
DWIDTH 5 0
BBX 4 15 0 -3
BITMAP
10
10
00
00
30
10
10
10
10
10
10
10
90
D0
60
ENDCHAR

STARTCHAR afii10106
ENCODING 249
SWIDTH 887 0
DWIDTH 13 0
BBX 13 8 0 0
BITMAP
3F80
1100
1100
11F0
1108
1108
9108
63F0
ENDCHAR

STARTCHAR afii10107
ENCODING 250
SWIDTH 888 0
DWIDTH 13 0
BBX 12 8 1 0
BITMAP
E700
4200
4200
7FE0
4210
4210
4210
E7E0
ENDCHAR

STARTCHAR afii10108
ENCODING 251
SWIDTH 635 0
DWIDTH 10 0
BBX 8 11 1 0
BITMAP
C0
40
FC
40
5C
62
42
42
42
42
E7
ENDCHAR

STARTCHAR afii10109
ENCODING 252
SWIDTH 602 0
DWIDTH 9 0
BBX 8 12 1 0
BITMAP
18
10
20
00
E7
49
48
70
4C
44
42
E3
ENDCHAR

STARTCHAR section
ENCODING 253
SWIDTH 490 0
DWIDTH 7 0
BBX 5 14 1 -3
BITMAP
70
88
88
C0
60
90
88
88
48
30
18
88
88
70
ENDCHAR

STARTCHAR afii10110
ENCODING 254
SWIDTH 573 0
DWIDTH 9 0
BBX 8 15 1 -3
BITMAP
44
44
38
00
E7
42
42
24
24
24
18
18
90
D0
60
ENDCHAR

STARTCHAR afii10193
ENCODING 255
SWIDTH 646 0
DWIDTH 10 0
BBX 8 11 1 -3
BITMAP
E7
42
42
42
42
42
42
FF
08
08
08
ENDCHAR
ENDFONT
